#!OML:ASF E:\emotionWalksFemale\Project 1\Capture day 1\Session 1\Female1.ASF
:FULLY-SPECIFIED
:DEGREES
1453
root 26.3283 15.7273 -20.4491 357.338 -33.4559 0.387849
lowerback 5.86975 -0.921562 -4.09606
upperback -6.71362 -1.83872 -1.14713
thorax -10.3847 -0.650197 1.33993
lowerneck -17.1873 -4.10722 -6.44114
upperneck 20.2467 -4.26038 1.11106
head 9.39919 -2.39061 0.881065
rclavicle -1.2752e-013 -2.26615e-014
rhumerus 22.6518 16.116 -49.3789
rradius 27.1371
rwrist 24.5355
rhand -7.71957 -46.3574
rfingers 7.12502
rthumb -161.821 -255.528
lclavicle -1.2752e-013 -2.26615e-014
lhumerus 24.5689 -7.99905 60.7079
lradius 25.518
lwrist -36.9346
lhand -5.5483 -42.4039
lfingers 7.12502
lthumb 20.2665 -13.4412
rfemur -20.3226 -7.36442 26.4562
rtibia 50.9287
rfoot -21.7819 -17.6671
rtoes 4.36236
lfemur 1.61031 -22.3684 -26.667
ltibia 25.4916
lfoot -22.6053 30.8547
ltoes -13.4317
1454
root 26.3029 15.7334 -20.3625 357.335 -33.8062 0.530032
lowerback 5.80268 -1.03862 -4.27531
upperback -6.82626 -2.01268 -1.08074
thorax -10.4549 -0.715767 1.53553
lowerneck -17.0969 -3.95679 -6.63067
upperneck 20.3405 -3.97877 0.983785
head 9.40705 -2.29142 0.906842
rclavicle -5.00937e-014 -1.35174e-014
rhumerus 22.784 17.1339 -48.7803
rradius 27.5071
rwrist 23.7204
rhand -7.90563 -46.8238
rfingers 7.12502
rthumb -162 -256.011
lclavicle -5.00937e-014 -1.35174e-014
lhumerus 24.2876 -4.83456 63.1355
lradius 24.6806
lwrist -40.4742
lhand -5.54017 -42.6288
lfingers 7.12502
lthumb 20.2743 -13.6669
rfemur -21.143 -7.11009 26.784
rtibia 49.3443
rfoot -22.3726 -18.1915
rtoes 5.13731
lfemur 2.03362 -22.2687 -27.0469
ltibia 25.2528
lfoot -22.643 31.1487
ltoes -13.3756
1455
root 26.276 15.7349 -20.2746 357.206 -34.1872 0.547556
lowerback 5.88023 -1.04292 -4.35202
upperback -6.83057 -2.02828 -1.04318
thorax -10.5025 -0.714467 1.62292
lowerneck -16.8619 -3.90864 -7.11074
upperneck 20.2942 -3.88667 1.34824
head 9.36325 -2.24616 1.12732
rclavicle -1.29806e-013 -1.78906e-014
rhumerus 22.8301 17.7236 -48.3121
rradius 27.6795
rwrist 22.9644
rhand -8.56028 -47.2386
rfingers 7.12502
rthumb -162.63 -256.482
lclavicle -1.29806e-013 -1.78906e-014
lhumerus 24.104 -7.76736 60.9466
lradius 25.3813
lwrist -36.6408
lhand -5.65355 -41.548
lfingers 7.12502
lthumb 20.1654 -12.5746
rfemur -21.6708 -6.84257 27.1716
rtibia 47.6849
rfoot -22.6505 -19.1154
rtoes 3.49645
lfemur 2.72477 -21.9993 -27.3527
ltibia 24.8932
lfoot -22.8886 30.9664
ltoes -9.68015
1456
root 26.2442 15.7429 -20.1837 357.314 -34.4711 0.709622
lowerback 5.55899 -1.01737 -4.54826
upperback -6.89009 -2.00705 -1.11215
thorax -10.3752 -0.696267 1.64791
lowerneck -16.5031 -3.91279 -7.18446
upperneck 19.9695 -3.91742 1.42206
head 9.18917 -2.25501 1.16752
rclavicle -1.67973e-014 1.98785e-015
rhumerus 22.7624 17.2543 -48.5567
rradius 27.437
rwrist 23.3105
rhand -8.6472 -47.3617
rfingers 7.12502
rthumb -162.714 -256.613
lclavicle -1.67973e-014 1.98785e-015
lhumerus 24.0752 -8.54713 60.6046
lradius 25.6598
lwrist -35.838
lhand -5.9373 -41.4512
lfingers 7.12502
lthumb 19.8926 -12.4493
rfemur -22.4588 -6.65687 27.4498
rtibia 45.9437
rfoot -22.2691 -20.0856
rtoes 0.52401
lfemur 3.11319 -21.6681 -27.6252
ltibia 24.4396
lfoot -23.7977 30.507
ltoes -4.86603
1457
root 26.2137 15.7541 -20.0973 357.036 -34.6675 1.00298
lowerback 5.66661 -0.993493 -4.86344
upperback -6.88675 -2.02932 -1.25341
thorax -10.434 -0.68837 1.67836
lowerneck -16.8744 -3.93469 -6.5412
upperneck 20.3859 -3.90753 0.617337
head 9.37064 -2.29596 0.778467
rclavicle 9.80008e-014 2.18663e-014
rhumerus 22.6325 16.4778 -49.1104
rradius 27.1341
rwrist 24.079
rhand -8.34694 -47.7384
rfingers 7.12502
rthumb -162.425 -256.964
lclavicle 9.80008e-014 2.18663e-014
lhumerus 23.9813 -8.52866 60.9528
lradius 25.777
lwrist -36.0514
lhand -5.87199 -41.2988
lfingers 7.12502
lthumb 19.9554 -12.3035
rfemur -22.8442 -6.58954 27.5225
rtibia 44.13
rfoot -21.8675 -20.6662
rtoes -1.28281
lfemur 3.91542 -21.2396 -28.154
ltibia 23.9123
lfoot -23.766 30.3251
ltoes -3.45903
1458
root 26.1801 15.7663 -20.0122 356.734 -34.8985 1.27165
lowerback 5.97152 -0.958712 -5.10757
upperback -6.90371 -2.04927 -1.43686
thorax -10.6386 -0.682445 1.62837
lowerneck -17.0165 -3.92882 -6.45342
upperneck 20.4927 -3.94998 0.775495
head 9.43593 -2.29199 0.810106
rclavicle 6.69904e-014 1.03368e-014
rhumerus 22.4718 16.244 -49.3991
rradius 27.0848
rwrist 24.1771
rhand -8.29417 -48.9113
rfingers 7.12502
rthumb -162.374 -258.132
lclavicle 6.69904e-014 1.03368e-014
lhumerus 23.9918 -8.28588 61.1714
lradius 25.7481
lwrist -36.4576
lhand -5.67787 -41.5378
lfingers 7.12502
lthumb 20.142 -12.562
rfemur -23.123 -6.29062 27.559
rtibia 42.275
rfoot -21.9845 -20.9702
rtoes -0.681532
lfemur 4.83617 -21.2544 -28.785
ltibia 23.3242
lfoot -22.7424 31.1053
ltoes -7.31373
